<svg id="Layer_1" data-name="Layer 1" xmlns="http://www.w3.org/2000/svg" viewBox="0 0 225 225"><defs><style>.cls-1{fill:#ea6a13;}</style></defs><title>Faculty</title><path class="cls-1" d="M64.31,36.23H78.62v2.53H67.22V46H77.9v2.53H67.22v10H64.31Z"/><path class="cls-1" d="M93.24,55a26.11,26.11,0,0,0,.22,3.53H90.78a9.32,9.32,0,0,1-.26-2.12c-.57,1.08-1.86,2.51-5,2.51-3.83,0-5.46-2.49-5.46-5,0-3.62,2.84-5.28,7.67-5.28h2.76V47.26c0-1.43-.45-3.18-3.49-3.18-2.71,0-3.17,1.35-3.46,2.61H80.82c.21-2.23,1.59-4.82,6.26-4.81,4,0,6.16,1.63,6.16,5.32ZM90.5,50.58H87.88c-3.24,0-5,.9-5,3.18a2.86,2.86,0,0,0,3.16,2.92c3.91,0,4.43-2.63,4.43-5.58Z"/><path class="cls-1" d="M110.86,53.53c-.69,2.79-2.58,5.35-6.71,5.35-4.46,0-7.23-3.22-7.23-8.41,0-4.59,2.59-8.59,7.43-8.59,4.68,0,6.3,3.34,6.51,5.43h-2.78a3.62,3.62,0,0,0-3.78-3.08c-2.87,0-4.5,2.46-4.5,6.14s1.58,6.18,4.4,6.18c2,0,3.21-1.09,3.87-3Z"/><path class="cls-1" d="M127.1,53.76c0,1.58,0,3.77,0,4.73h-2.73c-.06-.42-.1-1.41-.11-2.43-.79,1.8-2.36,2.82-4.91,2.82-2.74,0-5.36-1.36-5.36-5.94V42.27h2.78V52.34c0,2.13.67,4.1,3.36,4.1,3,0,4.13-1.66,4.13-5.71V42.27h2.8Z"/><path class="cls-1" d="M131.91,58.49V35h2.8V58.49Z"/><path class="cls-1" d="M137.57,42.27h2.8V37.48h2.81v4.79h3.58v2.28h-3.58v9.51c0,1.57.38,2.38,1.85,2.38a6.38,6.38,0,0,0,1.41-.13v2.11a7.45,7.45,0,0,1-2.42.3c-2.53,0-3.65-1.31-3.65-4V44.55h-2.8Z"/><path class="cls-1" d="M151.59,42.27c2.62,7.77,4.06,12.07,4.49,13.72h0c.52-1.84,1.68-5.55,4.33-13.72h2.83l-5.83,17c-1.66,4.75-2.87,5.95-6.2,5.95a14,14,0,0,1-1.74-.11V62.64a9.52,9.52,0,0,0,1.34.09c2.05,0,2.83-.91,3.79-3.61l-6.08-16.85Z"/><path class="cls-1" d="M45.14,87.09v9.8H42.22V74.63h8.7c4.57,0,7,2.48,7,6a5.08,5.08,0,0,1-3.8,5.23c1.82.49,3.4,1.85,3.4,5.71v1a15.74,15.74,0,0,0,.3,4.4H55a15.33,15.33,0,0,1-.38-4.78v-.48c0-3.17-.89-4.54-4.88-4.54Zm0-2.49H50c3.41,0,4.9-1.28,4.9-3.78s-1.54-3.71-4.56-3.71H45.14Z"/><path class="cls-1" d="M64,89.29c0,3.3,1.68,5.64,4.43,5.64a3.74,3.74,0,0,0,3.92-2.5h2.82a6.6,6.6,0,0,1-6.82,4.85c-5.1,0-7.19-4.15-7.19-8.33,0-4.82,2.44-8.67,7.37-8.67,5.23,0,7,4.2,7,7.66a11.65,11.65,0,0,1,0,1.35Zm8.63-2c0-2.66-1.37-4.81-4.14-4.81s-4.11,2-4.4,4.81Z"/><path class="cls-1" d="M80.64,92.25a3.69,3.69,0,0,0,4,2.82c2.38,0,3.32-1,3.32-2.5s-.75-2.23-3.84-3c-4.64-1.12-5.61-2.54-5.61-4.74s1.69-4.57,5.86-4.57,5.9,2.43,6.11,4.69H87.75c-.23-1-1-2.51-3.52-2.51-2.27,0-3,1.09-3,2.16s.67,1.81,3.64,2.52c4.92,1.16,5.9,2.81,5.9,5.22,0,2.84-2.25,4.92-6.29,4.92-4.2,0-6.26-2.13-6.68-5Z"/><path class="cls-1" d="M94.42,73.4h2.8v3.5h-2.8Zm0,7.27h2.8V96.89h-2.8Z"/><path class="cls-1" d="M115.5,73.4V92.31c0,1.52,0,3,0,4.58h-2.69a21.51,21.51,0,0,1-.14-2.3c-.8,1.69-2.45,2.69-5.11,2.69-4.17,0-6.73-3.38-6.73-8.33s2.76-8.67,7.25-8.67c2.87,0,4.15,1.16,4.59,2.08v-9ZM103.77,88.86c0,3.92,1.86,6,4.41,6,3.79,0,4.63-2.8,4.63-6.36s-.76-5.88-4.41-5.88C105.54,82.66,103.77,84.93,103.77,88.86Z"/><path class="cls-1" d="M122,89.29c0,3.3,1.68,5.64,4.44,5.64a3.73,3.73,0,0,0,3.91-2.5h2.83a6.6,6.6,0,0,1-6.83,4.85c-5.1,0-7.18-4.15-7.18-8.33,0-4.82,2.43-8.67,7.36-8.67,5.23,0,7,4.2,7,7.66,0,.5,0,.91,0,1.35Zm8.64-2c0-2.66-1.38-4.81-4.15-4.81s-4.11,2-4.39,4.81Z"/><path class="cls-1" d="M137.05,84.76c0-1.41,0-2.84,0-4.09h2.73c.07.48.11,2.18.1,2.66a5.12,5.12,0,0,1,5.11-3c3,0,5.42,1.86,5.42,6.18V96.89h-2.8V86.82c0-2.45-1-4.11-3.43-4.11-3.06,0-4.3,2.33-4.3,5.59v8.59h-2.8Z"/><path class="cls-1" d="M168,91.93c-.69,2.79-2.58,5.35-6.71,5.35-4.46,0-7.23-3.22-7.23-8.41,0-4.59,2.6-8.59,7.44-8.59,4.67,0,6.29,3.34,6.5,5.43h-2.78a3.61,3.61,0,0,0-3.78-3.08c-2.87,0-4.49,2.46-4.49,6.14S158.48,95,161.3,95c2,0,3.21-1.09,3.87-3Z"/><path class="cls-1" d="M173.18,89.29c0,3.3,1.68,5.64,4.44,5.64a3.73,3.73,0,0,0,3.91-2.5h2.83a6.6,6.6,0,0,1-6.83,4.85c-5.1,0-7.18-4.15-7.18-8.33,0-4.82,2.43-8.67,7.36-8.67,5.24,0,6.95,4.2,6.95,7.66,0,.5,0,.91,0,1.35Zm8.64-2c0-2.66-1.38-4.81-4.15-4.81s-4.11,2-4.39,4.81Z"/><polygon class="cls-1" points="59 126.25 113 182.75 166 126.25 59 126.25"/></svg>