<svg id="Layer_1" data-name="Layer 1" xmlns="http://www.w3.org/2000/svg" viewBox="0 0 225 225"><defs><style>.cls-1{fill:#ea6a13;}</style></defs><title>GirlsHostel</title><path class="cls-1" d="M101,58.49H98.77a12.88,12.88,0,0,1-.28-3c-1,1.58-2.89,3.31-6.92,3.31-6.42,0-9.83-4.87-9.83-11.2,0-6.67,3.66-11.68,10.38-11.68,5.17,0,8.42,2.8,9.06,6.78h-3c-.76-2.49-2.55-4.32-6.18-4.32-5.17,0-7.22,4.13-7.22,9.08,0,4.58,2.07,8.86,7.1,8.86s6.23-3.32,6.23-7.08V49H91.89V46.47H101Z"/><path class="cls-1" d="M106,35h2.8v3.5H106Zm0,7.27h2.8V58.49H106Z"/><path class="cls-1" d="M113.55,46.68c0-2.27,0-3.55,0-4.41h2.75c0,.45.08,1.73.08,3.31a5.76,5.76,0,0,1,5.47-3.7v2.8c-3.33.1-5.47,1.83-5.47,5.94v7.87h-2.8Z"/><path class="cls-1" d="M124.78,58.49V35h2.8V58.49Z"/><path class="cls-1" d="M133.57,53.85c.46,1.78,1.78,2.82,4,2.82,2.38,0,3.32-1,3.32-2.5s-.75-2.23-3.85-3c-4.63-1.12-5.6-2.54-5.6-4.74s1.69-4.57,5.86-4.57,5.89,2.43,6.11,4.69h-2.71c-.24-1-1-2.51-3.52-2.51-2.28,0-2.95,1.09-2.95,2.15,0,1.22.66,1.82,3.64,2.53,4.92,1.17,5.9,2.81,5.9,5.22,0,2.84-2.25,4.92-6.29,4.92-4.21,0-6.27-2.13-6.68-5Z"/><path class="cls-1" d="M70.18,74.63h3v9.3h11.6v-9.3h3V96.89h-3V86.46H73.14V96.89h-3Z"/><path class="cls-1" d="M106.83,88.75c0,4.67-2.68,8.53-7.64,8.53-4.65,0-7.46-3.6-7.46-8.48s2.75-8.52,7.64-8.52C103.88,80.28,106.83,83.66,106.83,88.75Zm-12.22,0c0,3.56,1.78,6.15,4.69,6.15s4.64-2.46,4.64-6.14-1.66-6.16-4.7-6.16S94.61,85.08,94.61,88.78Z"/><path class="cls-1" d="M112.1,92.25a3.67,3.67,0,0,0,4,2.82c2.39,0,3.32-1,3.32-2.5s-.74-2.23-3.84-3c-4.63-1.12-5.6-2.54-5.6-4.74s1.68-4.57,5.85-4.57,5.9,2.43,6.12,4.69H119.2c-.23-1-1-2.51-3.52-2.51-2.27,0-2.94,1.09-2.94,2.16s.66,1.81,3.64,2.52c4.92,1.16,5.9,2.81,5.9,5.22,0,2.84-2.25,4.92-6.29,4.92-4.21,0-6.27-2.13-6.68-5Z"/><path class="cls-1" d="M123.66,80.67h2.81V75.88h2.8v4.79h3.58V83h-3.58v9.51c0,1.57.38,2.38,1.85,2.38a6.52,6.52,0,0,0,1.42-.13v2.11a7.54,7.54,0,0,1-2.43.3c-2.52,0-3.64-1.31-3.64-4V83h-2.81Z"/><path class="cls-1" d="M137.41,89.29c0,3.3,1.68,5.64,4.43,5.64a3.74,3.74,0,0,0,3.92-2.5h2.82a6.6,6.6,0,0,1-6.83,4.85c-5.1,0-7.18-4.15-7.18-8.33,0-4.82,2.43-8.67,7.37-8.67,5.23,0,6.94,4.2,6.94,7.66,0,.5,0,.91,0,1.35Zm8.63-2c0-2.66-1.37-4.81-4.15-4.81s-4.1,2-4.39,4.81Z"/><path class="cls-1" d="M152.56,96.89V73.4h2.8V96.89Z"/><polygon class="cls-1" points="59 126.25 113 182.75 166 126.25 59 126.25"/></svg>