<svg id="Layer_1" data-name="Layer 1" xmlns="http://www.w3.org/2000/svg" viewBox="0 0 225 225"><defs><style>.cls-1{fill:#12cc09;}</style></defs><title>LectureHC</title><path class="cls-1" d="M30.49,36.23h2.95V56H45.05l-.41,2.53H30.49Z"/><path class="cls-1" d="M49.74,50.89c0,3.3,1.68,5.65,4.44,5.65A3.75,3.75,0,0,0,58.1,54h2.82a6.6,6.6,0,0,1-6.83,4.85c-5.1,0-7.18-4.15-7.18-8.33,0-4.82,2.43-8.67,7.36-8.67,5.24,0,6.95,4.2,6.95,7.66,0,.5,0,.91,0,1.35Zm8.64-2c0-2.67-1.38-4.82-4.15-4.82s-4.11,2-4.39,4.82Z"/><path class="cls-1" d="M77.8,53.53c-.69,2.79-2.58,5.35-6.71,5.35-4.46,0-7.23-3.22-7.23-8.41,0-4.59,2.6-8.59,7.44-8.59,4.67,0,6.29,3.34,6.5,5.43H75a3.61,3.61,0,0,0-3.78-3.08c-2.87,0-4.49,2.46-4.49,6.14s1.57,6.18,4.39,6.18c2,0,3.21-1.09,3.87-3Z"/><path class="cls-1" d="M79.42,42.27h2.81V37.48H85v4.79h3.58v2.28H85v9.51c0,1.57.38,2.38,1.85,2.38a6.52,6.52,0,0,0,1.42-.13v2.11a7.54,7.54,0,0,1-2.43.3c-2.52,0-3.64-1.31-3.64-4V44.55H79.42Z"/><path class="cls-1" d="M104.32,53.76c0,1.58,0,3.77,0,4.73h-2.73c-.06-.42-.09-1.41-.1-2.43-.8,1.8-2.36,2.82-4.92,2.82-2.73,0-5.36-1.36-5.36-5.94V42.27H94V52.34c0,2.13.67,4.1,3.36,4.1,3,0,4.14-1.66,4.14-5.71V42.27h2.8Z"/><path class="cls-1" d="M109.12,46.68c0-2.27,0-3.55,0-4.41h2.74c0,.45.09,1.73.09,3.31a5.76,5.76,0,0,1,5.47-3.7v2.8c-3.33.1-5.47,1.83-5.47,5.94v7.87h-2.8Z"/><path class="cls-1" d="M121.81,50.89c0,3.3,1.68,5.65,4.43,5.65A3.75,3.75,0,0,0,130.16,54H133a6.6,6.6,0,0,1-6.82,4.85c-5.11,0-7.19-4.15-7.19-8.33,0-4.82,2.43-8.67,7.37-8.67,5.23,0,6.95,4.2,6.95,7.66a11.65,11.65,0,0,1,0,1.35Zm8.63-2c0-2.67-1.37-4.82-4.15-4.82s-4.1,2-4.39,4.82Z"/><path class="cls-1" d="M145.37,36.23h2.95v9.3h11.6v-9.3h3V58.49h-3V48.05h-11.6V58.49h-2.95Z"/><path class="cls-1" d="M179.83,55a26.11,26.11,0,0,0,.22,3.53h-2.68a8.77,8.77,0,0,1-.26-2.12c-.57,1.08-1.86,2.51-5,2.51-3.83,0-5.46-2.49-5.46-5,0-3.62,2.84-5.28,7.66-5.28h2.77V47.26c0-1.43-.45-3.18-3.49-3.18-2.71,0-3.17,1.35-3.46,2.61h-2.71c.21-2.23,1.59-4.82,6.26-4.81,4,0,6.16,1.63,6.16,5.32Zm-2.74-4.38h-2.62c-3.24,0-5,.9-5,3.18a2.86,2.86,0,0,0,3.16,2.92c3.91,0,4.43-2.63,4.43-5.58Z"/><path class="cls-1" d="M184.67,58.49V35h2.8V58.49Z"/><path class="cls-1" d="M192.25,58.49V35h2.81V58.49Z"/><path class="cls-1" d="M71.13,90.58c-1,3.78-3.81,6.59-8.86,6.59-6.66,0-10-5-10-11.34,0-6,3.37-11.52,10.13-11.52,5.25,0,8.1,3,8.76,6.72h-3a5.63,5.63,0,0,0-5.93-4.26c-4.91,0-6.91,4.47-6.91,9s1.9,9,7,9c3.43,0,4.94-2,5.78-4.13Z"/><path class="cls-1" d="M88.92,88.75c0,4.67-2.68,8.53-7.64,8.53-4.65,0-7.46-3.6-7.46-8.48s2.76-8.52,7.65-8.52C86,80.28,88.92,83.66,88.92,88.75Zm-12.21,0c0,3.56,1.77,6.15,4.69,6.15S86,92.47,86,88.79s-1.66-6.16-4.7-6.16S76.71,85.08,76.71,88.78Z"/><path class="cls-1" d="M92.58,84.85c0-1.4,0-2.87,0-4.18h2.7c0,.48.12,1.68.11,2.49a5,5,0,0,1,4.72-2.88,4.46,4.46,0,0,1,4.49,2.91,5.53,5.53,0,0,1,5.17-2.91c2.63,0,5.11,1.56,5.11,6V96.89H112.1V86.57c0-1.88-.68-3.87-3.21-3.87s-3.79,2-3.79,4.88v9.31h-2.75V86.66c0-2.09-.59-4-3.13-4s-3.86,2.11-3.86,5.2v9H92.58Z"/><path class="cls-1" d="M122.44,94.89v8.38h-2.79V84.63c0-1.33,0-2.7,0-4h2.72a23.87,23.87,0,0,1,.1,2.55,5.59,5.59,0,0,1,5.3-2.94c3.76,0,6.48,3.15,6.48,8.08,0,5.8-3.13,8.92-7.06,8.92C124.54,97.28,123.17,96.18,122.44,94.89Zm8.89-6.42c0-3.44-1.56-5.79-4.33-5.79-3.36,0-4.69,2.13-4.69,6.07s1.09,6.16,4.48,6.16C129.75,94.91,131.33,92.47,131.33,88.47Z"/><path class="cls-1" d="M137.89,96.89V73.4h2.8V96.89Z"/><path class="cls-1" d="M147.15,89.29c0,3.3,1.68,5.64,4.44,5.64a3.74,3.74,0,0,0,3.91-2.5h2.83a6.6,6.6,0,0,1-6.83,4.85c-5.1,0-7.18-4.15-7.18-8.33,0-4.82,2.43-8.67,7.36-8.67,5.23,0,6.95,4.2,6.95,7.66,0,.5,0,.91,0,1.35Zm8.64-2c0-2.66-1.38-4.81-4.15-4.81s-4.11,2-4.39,4.81Z"/><path class="cls-1" d="M163.34,80.67c2.28,3.61,3.25,5.15,3.84,6.06h0c.69-1,2-3.16,4-6.06h3.14l-5.49,7.8,5.54,8.42h-3.24c-2-3.17-3.34-5.35-4-6.41h0c-.54.91-1.85,3.07-4,6.41H160l5.45-8.1-5.29-8.12Z"/><polygon class="cls-1" points="59 126.25 113 182.75 166 126.25 59 126.25"/></svg>