<svg id="Layer_1" data-name="Layer 1" xmlns="http://www.w3.org/2000/svg" viewBox="0 0 225 225"><defs><style>.cls-1{fill:#12cc09;}</style></defs><title>Library</title><path class="cls-1" d="M65.64,53.23h3V73H80.2l-.41,2.53H65.64Z"/><path class="cls-1" d="M83.57,52h2.8v3.5h-2.8Zm0,7.27h2.8V75.49h-2.8Z"/><path class="cls-1" d="M91.15,52H94v9.58c.74-1.38,2.23-2.7,5.18-2.7,4.07,0,6.64,3.36,6.64,8.17s-2.47,8.83-7.07,8.83c-2.59,0-4-.95-4.77-2.53a18.67,18.67,0,0,1-.11,2.14h-2.7c0-1.81,0-3.63,0-5.45Zm11.73,15.11c0-3.51-1.59-5.85-4.41-5.85-3.44,0-4.66,2.31-4.66,6.18,0,3.37,1.08,6.07,4.53,6.07C101.21,73.51,102.88,71.06,102.88,67.11Z"/><path class="cls-1" d="M109.43,63.68c0-2.27,0-3.55,0-4.41h2.75c0,.45.09,1.73.09,3.31a5.74,5.74,0,0,1,5.46-3.7v2.8c-3.33.1-5.46,1.83-5.46,5.94v7.87h-2.8Z"/><path class="cls-1" d="M132.23,72a24.16,24.16,0,0,0,.23,3.54h-2.69a9.32,9.32,0,0,1-.26-2.12c-.57,1.08-1.86,2.51-5,2.51-3.83,0-5.46-2.49-5.46-5,0-3.62,2.84-5.28,7.67-5.28h2.77V64.26c0-1.43-.46-3.18-3.5-3.18-2.71,0-3.17,1.35-3.46,2.61h-2.71c.21-2.23,1.6-4.82,6.26-4.81,4,0,6.16,1.63,6.16,5.32Zm-2.73-4.37h-2.63c-3.23,0-5,.9-5,3.18a2.86,2.86,0,0,0,3.16,2.92c3.91,0,4.44-2.63,4.44-5.58Z"/><path class="cls-1" d="M137.07,63.68c0-2.27,0-3.55,0-4.41h2.75c0,.45.08,1.73.08,3.31a5.76,5.76,0,0,1,5.47-3.7v2.8c-3.33.1-5.47,1.83-5.47,5.94v7.87h-2.8Z"/><path class="cls-1" d="M150.26,59.27c2.62,7.77,4.07,12.07,4.5,13.72h0c.52-1.84,1.68-5.55,4.33-13.72H162l-5.83,17c-1.65,4.75-2.87,6-6.2,6a14.11,14.11,0,0,1-1.74-.11V79.64a9.52,9.52,0,0,0,1.34.09c2,0,2.83-.91,3.79-3.61l-6.08-16.85Z"/><polygon class="cls-1" points="59 126.25 113 182.75 166 126.25 59 126.25"/></svg>