<svg id="Layer_1" data-name="Layer 1" xmlns="http://www.w3.org/2000/svg" viewBox="0 0 225 225"><title>NewAcad</title><path d="M82.9,36.49V14.23h3.91C90,19.44,97,30.51,98.2,32.93h0c-.21-2.86-.19-6.37-.19-10V14.23h2.79V36.49H97.17C94.23,31.66,87,19.75,85.59,17.25h0c.17,2.54.17,6.31.17,10.33v8.91Z"/><path d="M107.73,28.89c0,3.3,1.68,5.64,4.43,5.64a3.74,3.74,0,0,0,3.92-2.5h2.82a6.6,6.6,0,0,1-6.82,4.85c-5.11,0-7.19-4.15-7.19-8.33,0-4.82,2.43-8.67,7.37-8.67,5.23,0,6.95,4.2,6.95,7.66a11.65,11.65,0,0,1,0,1.35Zm8.63-2c0-2.67-1.37-4.82-4.14-4.82s-4.11,2-4.4,4.82Z"/><path d="M124.24,20.27c2,7.61,3.16,12,3.44,13.63h0c.29-1.51,1.43-5.56,3.74-13.63h2.74c2.54,9.18,3.3,11.85,3.56,13.31h0c.41-1.74,1-4.17,3.59-13.31h2.84l-5,16.22h-3c-1.58-5.91-3.14-11.39-3.48-13.15h0c-.3,1.78-1.75,6.71-3.58,13.15H126l-4.71-16.22Z"/><path d="M48.46,68.21l-2.4,6.68H43.12l7.93-22.26h3.64L63,74.89H59.81l-2.47-6.68Zm8.12-2.52c-2.12-5.86-3.29-9-3.77-10.66h0c-.54,1.89-1.85,5.65-3.56,10.66Z"/><path d="M78.78,69.93c-.69,2.79-2.58,5.35-6.71,5.35-4.46,0-7.23-3.22-7.23-8.41,0-4.59,2.59-8.59,7.43-8.59,4.68,0,6.3,3.34,6.51,5.43H76a3.62,3.62,0,0,0-3.78-3.08c-2.87,0-4.5,2.46-4.5,6.14S69.3,73,72.12,73c2,0,3.21-1.09,3.87-3Z"/><path d="M94.34,71.35a24.16,24.16,0,0,0,.23,3.54H91.89a8.63,8.63,0,0,1-.27-2.12c-.57,1.08-1.86,2.51-5,2.51-3.82,0-5.46-2.49-5.46-5C81.15,66.7,84,65,88.82,65h2.77V63.66c0-1.43-.46-3.18-3.5-3.18-2.71,0-3.16,1.35-3.46,2.61H81.92c.21-2.23,1.6-4.82,6.26-4.81,4,0,6.16,1.63,6.16,5.32ZM91.61,67H89c-3.23,0-5,.9-5,3.18a2.85,2.85,0,0,0,3.15,2.92c3.91,0,4.44-2.63,4.44-5.58Z"/><path d="M112.65,51.4V70.31c0,1.52,0,3,0,4.58H110a21.51,21.51,0,0,1-.14-2.3c-.8,1.69-2.45,2.69-5.11,2.69C100.57,75.28,98,71.9,98,67s2.76-8.67,7.25-8.67c2.87,0,4.15,1.16,4.59,2.07v-9ZM100.92,66.86c0,3.92,1.86,6,4.41,6,3.79,0,4.63-2.8,4.63-6.36s-.76-5.88-4.41-5.88C102.69,60.66,100.92,62.93,100.92,66.86Z"/><path d="M119.1,67.29c0,3.3,1.68,5.64,4.44,5.64a3.75,3.75,0,0,0,3.92-2.5h2.82a6.6,6.6,0,0,1-6.83,4.85c-5.1,0-7.18-4.15-7.18-8.33,0-4.82,2.43-8.67,7.36-8.67,5.24,0,7,4.2,7,7.66,0,.5,0,.91,0,1.35Zm8.64-2c0-2.66-1.37-4.81-4.15-4.81s-4.11,2-4.39,4.81Z"/><path d="M134.19,62.85c0-1.4,0-2.87,0-4.18h2.7c0,.48.12,1.68.11,2.49a5,5,0,0,1,4.72-2.88,4.46,4.46,0,0,1,4.5,2.91,5.51,5.51,0,0,1,5.17-2.91c2.63,0,5.11,1.56,5.11,6V74.89h-2.76V64.57c0-1.88-.67-3.87-3.21-3.87s-3.78,2-3.78,4.88v9.31H144V64.66c0-2.09-.59-3.95-3.14-3.95S137,62.82,137,65.91v9h-2.78Z"/><path d="M161.27,51.4h2.8v3.5h-2.8Zm0,7.27h2.8V74.89h-2.8Z"/><path d="M181.66,69.93c-.69,2.79-2.58,5.35-6.71,5.35-4.46,0-7.23-3.22-7.23-8.41,0-4.59,2.59-8.59,7.43-8.59,4.68,0,6.3,3.34,6.51,5.43h-2.78a3.61,3.61,0,0,0-3.78-3.08c-2.87,0-4.5,2.46-4.5,6.14S172.18,73,175,73c2,0,3.21-1.09,3.87-3Z"/><path d="M76.33,91h8.54c4.71,0,6.9,2.48,6.9,5.56a4.88,4.88,0,0,1-3.2,4.85,5.49,5.49,0,0,1,3.93,5.33c0,4.2-3.2,6.52-7.42,6.52H76.33Zm8,9.26c3.22,0,4.48-1.27,4.48-3.44,0-2-1.41-3.38-4-3.38H79.22v6.82Zm-5.09,10.56h5.5c2.8,0,4.74-1.31,4.74-4.08,0-2.42-1.55-4-5.3-4H79.22Z"/><path d="M96.34,113.29V89.8h2.8v23.49Z"/><path d="M117.87,105.15c0,4.67-2.68,8.53-7.64,8.53-4.65,0-7.46-3.6-7.46-8.48s2.75-8.52,7.64-8.52C114.92,96.68,117.87,100.06,117.87,105.15Zm-12.22,0c0,3.56,1.78,6.15,4.69,6.15s4.64-2.46,4.64-6.14S113.32,99,110.28,99,105.65,101.48,105.65,105.18Z"/><path d="M134.52,108.33c-.69,2.79-2.58,5.35-6.71,5.35-4.46,0-7.23-3.22-7.23-8.41,0-4.59,2.6-8.59,7.44-8.59,4.67,0,6.29,3.34,6.5,5.43h-2.78A3.61,3.61,0,0,0,128,99c-2.87,0-4.49,2.46-4.49,6.14s1.57,6.18,4.39,6.18c2,0,3.21-1.09,3.87-3Z"/><path d="M140.67,104.81c1.37-1.6,4.94-5.35,7.14-7.74h3.34L145,103.39l6.8,9.9h-3.27l-5.46-8.11-2.44,2.36v5.75h-2.8V89.8h2.8Z"/><polygon points="59 126.25 113 182.75 166 126.25 59 126.25"/></svg>