<svg id="Layer_1" data-name="Layer 1" xmlns="http://www.w3.org/2000/svg" viewBox="0 0 225 225"><defs><style>.cls-1{fill:#063bbf;}</style></defs><title>NewBoysHostel</title><path class="cls-1" d="M44.19,58.49V36.23h3.9c3.2,5.21,10.14,16.28,11.39,18.7h0c-.21-2.86-.19-6.37-.19-10V36.23h2.79V58.49H58.45c-2.94-4.83-10.19-16.74-11.58-19.24h0c.16,2.54.16,6.31.16,10.33v8.91Z"/><path class="cls-1" d="M69,50.89c0,3.3,1.68,5.65,4.43,5.65A3.75,3.75,0,0,0,77.36,54h2.82a6.6,6.6,0,0,1-6.82,4.85c-5.1,0-7.19-4.15-7.19-8.33,0-4.82,2.44-8.67,7.37-8.67,5.23,0,6.95,4.2,6.95,7.66a11.65,11.65,0,0,1,0,1.35Zm8.63-2c0-2.67-1.37-4.82-4.14-4.82s-4.11,2-4.4,4.82Z"/><path class="cls-1" d="M85.52,42.27c2,7.61,3.17,12,3.44,13.63H89c.29-1.51,1.43-5.56,3.74-13.63H95.5c2.53,9.18,3.29,11.85,3.55,13.31h0c.4-1.74,1-4.17,3.58-13.31h2.84l-5,16.22h-3C95.9,52.58,94.34,47.1,94,45.34h0c-.3,1.78-1.75,6.71-3.58,13.15H87.26L82.55,42.27Z"/><path class="cls-1" d="M117.34,36.23h8.54c4.71,0,6.9,2.48,6.9,5.56a4.88,4.88,0,0,1-3.2,4.85A5.49,5.49,0,0,1,133.51,52c0,4.2-3.2,6.52-7.42,6.52h-8.75Zm8,9.26c3.22,0,4.48-1.27,4.48-3.44,0-2-1.41-3.38-4-3.38h-5.54v6.82Zm-5.09,10.56h5.5c2.8,0,4.74-1.31,4.74-4.08,0-2.42-1.55-4-5.3-4h-4.94Z"/><path class="cls-1" d="M151.51,50.35c0,4.67-2.68,8.53-7.63,8.53-4.65,0-7.47-3.6-7.47-8.48s2.76-8.52,7.65-8.52C148.56,41.88,151.51,45.26,151.51,50.35Zm-12.21,0c0,3.56,1.78,6.16,4.69,6.16s4.64-2.47,4.64-6.15-1.66-6.16-4.7-6.16S139.3,46.68,139.3,50.38Z"/><path class="cls-1" d="M156.33,42.27C159,50,160.39,54.34,160.82,56h0c.53-1.84,1.68-5.55,4.33-13.72H168l-5.83,17c-1.65,4.75-2.87,5.95-6.19,5.95a14.15,14.15,0,0,1-1.75-.11V62.64a9.73,9.73,0,0,0,1.34.09c2.06,0,2.84-.91,3.8-3.61L153.3,42.27Z"/><path class="cls-1" d="M172.37,53.85c.46,1.78,1.78,2.82,4,2.82,2.38,0,3.32-1,3.32-2.5s-.75-2.23-3.85-3c-4.63-1.12-5.6-2.54-5.6-4.74s1.69-4.57,5.86-4.57,5.89,2.43,6.11,4.69h-2.71c-.24-1-1-2.51-3.52-2.51-2.28,0-3,1.09-3,2.15,0,1.22.66,1.82,3.64,2.53,4.92,1.17,5.9,2.81,5.9,5.22,0,2.84-2.25,4.92-6.29,4.92-4.21,0-6.27-2.13-6.68-5Z"/><path class="cls-1" d="M70.18,74.63h3v9.3h11.6v-9.3h3V96.89h-3V86.46H73.14V96.89h-3Z"/><path class="cls-1" d="M106.83,88.75c0,4.67-2.68,8.53-7.64,8.53-4.65,0-7.46-3.6-7.46-8.48s2.75-8.52,7.64-8.52C103.88,80.28,106.83,83.66,106.83,88.75Zm-12.22,0c0,3.56,1.78,6.15,4.69,6.15s4.64-2.46,4.64-6.14-1.66-6.16-4.7-6.16S94.61,85.08,94.61,88.78Z"/><path class="cls-1" d="M112.1,92.25a3.67,3.67,0,0,0,4,2.82c2.39,0,3.32-1,3.32-2.5s-.74-2.23-3.84-3c-4.63-1.12-5.6-2.54-5.6-4.74s1.68-4.57,5.85-4.57,5.9,2.43,6.12,4.69H119.2c-.23-1-1-2.51-3.52-2.51-2.27,0-2.94,1.09-2.94,2.16s.66,1.81,3.64,2.52c4.92,1.16,5.9,2.81,5.9,5.22,0,2.84-2.25,4.92-6.29,4.92-4.21,0-6.27-2.13-6.68-5Z"/><path class="cls-1" d="M123.66,80.67h2.81V75.88h2.8v4.79h3.58V83h-3.58v9.51c0,1.57.38,2.38,1.85,2.38a6.52,6.52,0,0,0,1.42-.13v2.11a7.54,7.54,0,0,1-2.43.3c-2.52,0-3.64-1.31-3.64-4V83h-2.81Z"/><path class="cls-1" d="M137.41,89.29c0,3.3,1.68,5.64,4.43,5.64a3.74,3.74,0,0,0,3.92-2.5h2.82a6.6,6.6,0,0,1-6.83,4.85c-5.1,0-7.18-4.15-7.18-8.33,0-4.82,2.43-8.67,7.37-8.67,5.23,0,6.94,4.2,6.94,7.66,0,.5,0,.91,0,1.35Zm8.63-2c0-2.66-1.37-4.81-4.15-4.81s-4.1,2-4.39,4.81Z"/><path class="cls-1" d="M152.56,96.89V73.4h2.8V96.89Z"/><polygon class="cls-1" points="59 126.25 113 182.75 166 126.25 59 126.25"/></svg>