<svg id="Layer_1" data-name="Layer 1" xmlns="http://www.w3.org/2000/svg" viewBox="0 0 225 225"><defs><style>.cls-1{fill:#ea6a13;}</style></defs><title>OldAcad</title><polygon class="cls-1" points="59 126.25 113 182.75 166 126.25 59 126.25"/><path class="cls-1" d="M110.92,25.24c0,6.12-3.43,11.57-10.45,11.57-6.55,0-10.21-5.06-10.21-11.45S94,13.91,100.73,13.91C107,13.91,110.92,18.62,110.92,25.24Zm-17.57,0c0,4.81,2.47,9,7.25,9,5.17,0,7.23-4.26,7.23-9s-2.33-8.85-7.22-8.85C95.56,16.43,93.35,20.52,93.35,25.27Z"/><path class="cls-1" d="M115,36.49V13h2.8V36.49Z"/><path class="cls-1" d="M136.05,13V31.91c0,1.52,0,3,0,4.58h-2.69a21.51,21.51,0,0,1-.14-2.3c-.8,1.69-2.45,2.69-5.11,2.69-4.17,0-6.73-3.38-6.73-8.33s2.76-8.67,7.25-8.67c2.87,0,4.15,1.16,4.59,2.08V13ZM124.32,28.46c0,3.92,1.86,6,4.41,6,3.79,0,4.63-2.8,4.63-6.36s-.76-5.88-4.41-5.88C126.09,22.26,124.32,24.53,124.32,28.46Z"/><path class="cls-1" d="M49.46,68.21l-2.4,6.68H44.12l7.93-22.26h3.64L64,74.89H60.81l-2.47-6.68Zm8.12-2.52c-2.12-5.86-3.29-9-3.77-10.66h0c-.54,1.89-1.85,5.65-3.56,10.66Z"/><path class="cls-1" d="M79.78,69.93c-.69,2.79-2.58,5.35-6.71,5.35-4.46,0-7.23-3.22-7.23-8.41,0-4.59,2.59-8.59,7.43-8.59,4.68,0,6.3,3.34,6.51,5.43H77a3.62,3.62,0,0,0-3.78-3.08c-2.87,0-4.5,2.46-4.5,6.14S70.3,73,73.12,73c2,0,3.21-1.09,3.87-3Z"/><path class="cls-1" d="M95.34,71.35a24.16,24.16,0,0,0,.23,3.54H92.89a8.63,8.63,0,0,1-.27-2.12c-.57,1.08-1.86,2.51-5,2.51-3.82,0-5.46-2.49-5.46-5C82.15,66.7,85,65,89.82,65h2.77V63.66c0-1.43-.46-3.18-3.5-3.18-2.71,0-3.16,1.35-3.46,2.61H82.92c.21-2.23,1.6-4.82,6.26-4.81,4,0,6.16,1.63,6.16,5.32ZM92.61,67H90c-3.23,0-5,.9-5,3.18a2.85,2.85,0,0,0,3.15,2.92c3.91,0,4.44-2.63,4.44-5.58Z"/><path class="cls-1" d="M113.65,51.4V70.31c0,1.52,0,3,0,4.58H111a21.51,21.51,0,0,1-.14-2.3c-.8,1.69-2.45,2.69-5.11,2.69C101.57,75.28,99,71.9,99,67s2.76-8.67,7.25-8.67c2.87,0,4.15,1.16,4.59,2.07v-9ZM101.92,66.86c0,3.92,1.86,6,4.41,6,3.79,0,4.63-2.8,4.63-6.36s-.76-5.88-4.41-5.88C103.69,60.66,101.92,62.93,101.92,66.86Z"/><path class="cls-1" d="M120.1,67.29c0,3.3,1.68,5.64,4.44,5.64a3.75,3.75,0,0,0,3.92-2.5h2.82a6.6,6.6,0,0,1-6.83,4.85c-5.1,0-7.18-4.15-7.18-8.33,0-4.82,2.43-8.67,7.36-8.67,5.24,0,7,4.2,7,7.66,0,.5,0,.91,0,1.35Zm8.64-2c0-2.66-1.37-4.81-4.15-4.81s-4.11,2-4.39,4.81Z"/><path class="cls-1" d="M135.19,62.85c0-1.4,0-2.87,0-4.18h2.7c0,.48.12,1.68.11,2.49a5,5,0,0,1,4.72-2.88,4.46,4.46,0,0,1,4.5,2.91,5.51,5.51,0,0,1,5.17-2.91c2.63,0,5.11,1.56,5.11,6V74.89h-2.76V64.57c0-1.88-.67-3.87-3.21-3.87s-3.78,2-3.78,4.88v9.31H145V64.66c0-2.09-.59-3.95-3.14-3.95S138,62.82,138,65.91v9h-2.78Z"/><path class="cls-1" d="M162.27,51.4h2.8v3.5h-2.8Zm0,7.27h2.8V74.89h-2.8Z"/><path class="cls-1" d="M182.66,69.93c-.69,2.79-2.58,5.35-6.71,5.35-4.46,0-7.23-3.22-7.23-8.41,0-4.59,2.59-8.59,7.43-8.59,4.68,0,6.3,3.34,6.51,5.43h-2.78a3.61,3.61,0,0,0-3.78-3.08c-2.87,0-4.5,2.46-4.5,6.14S173.18,73,176,73c2,0,3.21-1.09,3.87-3Z"/><path class="cls-1" d="M77.33,91h8.54c4.71,0,6.9,2.48,6.9,5.56a4.88,4.88,0,0,1-3.2,4.85,5.49,5.49,0,0,1,3.93,5.33c0,4.2-3.2,6.52-7.42,6.52H77.33Zm8,9.26c3.22,0,4.48-1.27,4.48-3.44,0-2-1.41-3.38-4-3.38H80.22v6.82Zm-5.09,10.56h5.5c2.8,0,4.74-1.31,4.74-4.08,0-2.42-1.55-4-5.3-4H80.22Z"/><path class="cls-1" d="M97.34,113.29V89.8h2.8v23.49Z"/><path class="cls-1" d="M118.87,105.15c0,4.67-2.68,8.53-7.64,8.53-4.65,0-7.46-3.6-7.46-8.48s2.75-8.52,7.64-8.52C115.92,96.68,118.87,100.06,118.87,105.15Zm-12.22,0c0,3.56,1.78,6.15,4.69,6.15s4.64-2.46,4.64-6.14S114.32,99,111.28,99,106.65,101.48,106.65,105.18Z"/><path class="cls-1" d="M135.52,108.33c-.69,2.79-2.58,5.35-6.71,5.35-4.46,0-7.23-3.22-7.23-8.41,0-4.59,2.6-8.59,7.44-8.59,4.67,0,6.29,3.34,6.5,5.43h-2.78A3.61,3.61,0,0,0,129,99c-2.87,0-4.49,2.46-4.49,6.14s1.57,6.18,4.39,6.18c2,0,3.21-1.09,3.87-3Z"/><path class="cls-1" d="M141.67,104.81c1.37-1.6,4.94-5.35,7.14-7.74h3.34L146,103.39l6.8,9.9h-3.27l-5.46-8.11-2.44,2.36v5.75h-2.8V89.8h2.8Z"/></svg>