<svg id="Layer_1" data-name="Layer 1" xmlns="http://www.w3.org/2000/svg" viewBox="0 0 225 225"><defs><style>.cls-1{fill:#12cc09;}</style></defs><title>oldBoysHostel</title><path class="cls-1" d="M71.2,47.24c0,6.12-3.43,11.57-10.45,11.57-6.55,0-10.21-5.06-10.21-11.45S54.28,35.91,61,35.91C67.28,35.91,71.2,40.62,71.2,47.24Zm-17.57,0c0,4.81,2.47,9,7.25,9,5.17,0,7.23-4.25,7.23-9s-2.33-8.85-7.22-8.85C55.84,38.43,53.63,42.52,53.63,47.27Z"/><path class="cls-1" d="M75.25,58.49V35h2.8V58.49Z"/><path class="cls-1" d="M96.33,35V53.91c0,1.52,0,3,0,4.58H93.67a21.51,21.51,0,0,1-.14-2.3c-.8,1.69-2.45,2.69-5.1,2.69-4.18,0-6.74-3.38-6.74-8.33s2.77-8.67,7.25-8.67c2.87,0,4.15,1.16,4.59,2.08V35ZM84.6,50.46c0,3.92,1.86,6,4.41,6,3.79,0,4.63-2.8,4.63-6.36s-.76-5.88-4.41-5.88C86.37,44.26,84.6,46.53,84.6,50.46Z"/><path class="cls-1" d="M109.74,36.23h8.54c4.71,0,6.9,2.48,6.9,5.56a4.88,4.88,0,0,1-3.2,4.85A5.49,5.49,0,0,1,125.91,52c0,4.2-3.2,6.52-7.42,6.52h-8.75Zm8,9.26c3.22,0,4.48-1.27,4.48-3.44,0-2-1.41-3.38-4-3.38h-5.54v6.82Zm-5.09,10.56h5.5c2.8,0,4.74-1.31,4.74-4.08,0-2.42-1.55-4-5.3-4h-4.94Z"/><path class="cls-1" d="M143.91,50.35c0,4.67-2.67,8.53-7.63,8.53-4.65,0-7.47-3.6-7.47-8.48s2.76-8.52,7.65-8.52C141,41.88,143.91,45.26,143.91,50.35Zm-12.21,0c0,3.56,1.78,6.16,4.69,6.16S141,54.07,141,50.39s-1.66-6.16-4.7-6.16S131.7,46.68,131.7,50.38Z"/><path class="cls-1" d="M148.73,42.27c2.62,7.77,4.06,12.07,4.49,13.72h0c.53-1.84,1.68-5.55,4.33-13.72h2.84l-5.84,17c-1.65,4.75-2.87,5.95-6.19,5.95a14.15,14.15,0,0,1-1.75-.11V62.64a9.73,9.73,0,0,0,1.34.09c2.06,0,2.84-.91,3.8-3.61L145.7,42.27Z"/><path class="cls-1" d="M164.77,53.85c.46,1.78,1.78,2.82,4,2.82,2.38,0,3.31-1,3.31-2.5s-.74-2.23-3.84-3c-4.64-1.12-5.6-2.54-5.6-4.74s1.68-4.57,5.86-4.57,5.89,2.43,6.1,4.69h-2.7c-.24-1-1-2.51-3.53-2.51-2.27,0-2.94,1.09-2.94,2.15,0,1.22.66,1.82,3.64,2.53C174,49.91,175,51.55,175,54c0,2.84-2.25,4.92-6.29,4.92-4.21,0-6.27-2.13-6.68-5Z"/><path class="cls-1" d="M70.18,74.63h3v9.3h11.6v-9.3h3V96.89h-3V86.46H73.14V96.89h-3Z"/><path class="cls-1" d="M106.83,88.75c0,4.67-2.68,8.53-7.64,8.53-4.65,0-7.46-3.6-7.46-8.48s2.75-8.52,7.64-8.52C103.88,80.28,106.83,83.66,106.83,88.75Zm-12.22,0c0,3.56,1.78,6.15,4.69,6.15s4.64-2.46,4.64-6.14-1.66-6.16-4.7-6.16S94.61,85.08,94.61,88.78Z"/><path class="cls-1" d="M112.1,92.25a3.67,3.67,0,0,0,4,2.82c2.39,0,3.32-1,3.32-2.5s-.74-2.23-3.84-3c-4.63-1.12-5.6-2.54-5.6-4.74s1.68-4.57,5.85-4.57,5.9,2.43,6.12,4.69H119.2c-.23-1-1-2.51-3.52-2.51-2.27,0-2.94,1.09-2.94,2.16s.66,1.81,3.64,2.52c4.92,1.16,5.9,2.81,5.9,5.22,0,2.84-2.25,4.92-6.29,4.92-4.21,0-6.27-2.13-6.68-5Z"/><path class="cls-1" d="M123.66,80.67h2.81V75.88h2.8v4.79h3.58V83h-3.58v9.51c0,1.57.38,2.38,1.85,2.38a6.52,6.52,0,0,0,1.42-.13v2.11a7.54,7.54,0,0,1-2.43.3c-2.52,0-3.64-1.31-3.64-4V83h-2.81Z"/><path class="cls-1" d="M137.41,89.29c0,3.3,1.68,5.64,4.43,5.64a3.74,3.74,0,0,0,3.92-2.5h2.82a6.6,6.6,0,0,1-6.83,4.85c-5.1,0-7.18-4.15-7.18-8.33,0-4.82,2.43-8.67,7.37-8.67,5.23,0,6.94,4.2,6.94,7.66,0,.5,0,.91,0,1.35Zm8.63-2c0-2.66-1.37-4.81-4.15-4.81s-4.1,2-4.39,4.81Z"/><path class="cls-1" d="M152.56,96.89V73.4h2.8V96.89Z"/><polygon class="cls-1" points="59 126.25 113 182.75 166 126.25 59 126.25"/></svg>