<svg id="Layer_1" data-name="Layer 1" xmlns="http://www.w3.org/2000/svg" viewBox="0 0 225 225"><defs><style>.cls-1{fill:#063bbf;}</style></defs><title>R&amp;amp;D</title><path class="cls-1" d="M84.65,51.69v9.8H81.72V39.23h8.7c4.57,0,7,2.48,7,6a5.08,5.08,0,0,1-3.79,5.23c1.81.49,3.4,1.85,3.4,5.71v1a15.79,15.79,0,0,0,.29,4.4H94.46a15.4,15.4,0,0,1-.37-4.78v-.48c0-3.17-.9-4.54-4.89-4.54Zm0-2.49h4.84c3.4,0,4.9-1.28,4.9-3.78s-1.55-3.71-4.57-3.71H84.65Z"/><path class="cls-1" d="M121.59,47.38l-5.69,8.35c-2.65,3.9-4.54,6.08-8.63,6.08a5.92,5.92,0,0,1-6.33-5.87c0-2.92,1.61-4.91,6-7.19,2.86-1.58,4.47-2.63,4.47-4.7a2.85,2.85,0,1,0-5.68.11c0,1.39,1,2.62,2.7,4.2l13.38,13.13H118L106.1,49.75c-1.78-1.72-3-3.27-3-5.46a5.26,5.26,0,0,1,5.58-5.38A5.08,5.08,0,0,1,114.05,44c0,2.47-1.59,4-5.56,6.21-3.85,2-4.64,3.56-4.64,5.41a3.68,3.68,0,0,0,3.64,3.69c2.49,0,3.9-1,6.7-5.25l4.41-6.7Z"/><path class="cls-1" d="M126.07,39.23h8c6.25,0,10.49,4.27,10.49,10.91s-4.13,11.35-10.59,11.35h-7.86ZM129,59h4.67c5.24,0,7.74-3.76,7.74-8.79,0-4.4-2.28-8.46-7.72-8.46H129Z"/><path class="cls-1" d="M80.38,77.63h8.54c4.71,0,6.9,2.48,6.9,5.56A4.88,4.88,0,0,1,92.62,88a5.49,5.49,0,0,1,3.93,5.33c0,4.2-3.2,6.52-7.42,6.52H80.38Zm8,9.26c3.22,0,4.48-1.27,4.48-3.44,0-2-1.41-3.38-4-3.38H83.27v6.82ZM83.27,97.45h5.5c2.8,0,4.74-1.31,4.74-4.08,0-2.42-1.55-4-5.3-4H83.27Z"/><path class="cls-1" d="M100.38,99.89V76.4h2.81V99.89Z"/><path class="cls-1" d="M121.91,91.75c0,4.67-2.67,8.53-7.63,8.53-4.65,0-7.47-3.6-7.47-8.48s2.76-8.52,7.65-8.52C119,83.28,121.91,86.66,121.91,91.75Zm-12.21,0c0,3.56,1.78,6.15,4.69,6.15S119,95.47,119,91.79s-1.66-6.16-4.7-6.16S109.7,88.08,109.7,91.78Z"/><path class="cls-1" d="M138.57,94.93c-.69,2.79-2.58,5.35-6.71,5.35-4.46,0-7.23-3.22-7.23-8.41,0-4.59,2.59-8.59,7.43-8.59,4.68,0,6.3,3.34,6.51,5.43h-2.78A3.61,3.61,0,0,0,132,85.63c-2.87,0-4.5,2.46-4.5,6.14s1.58,6.18,4.4,6.18c2,0,3.21-1.09,3.87-3Z"/><path class="cls-1" d="M144.72,91.41c1.37-1.6,4.93-5.35,7.13-7.74h3.34L149.09,90l6.8,9.9h-3.27l-5.46-8.11-2.44,2.36v5.75h-2.8V76.4h2.8Z"/><polygon class="cls-1" points="59 126.25 113 182.75 166 126.25 59 126.25"/></svg>