<svg id="Layer_1" data-name="Layer 1" xmlns="http://www.w3.org/2000/svg" viewBox="0 0 225 225"><defs><style>.cls-1{fill:#12cc09;}</style></defs><title>Sports</title><path class="cls-1" d="M70.41,52.3c.61,2.67,2.43,4.11,5.66,4.11,3.47,0,4.85-1.63,4.85-3.73s-1.1-3.49-5.56-4.57c-5.25-1.27-7.07-3.07-7.07-6.2,0-3.3,2.44-6,7.41-6,5.3,0,7.48,3.06,7.78,6h-3c-.39-2-1.63-3.61-4.88-3.61-2.71,0-4.23,1.22-4.23,3.34s1.25,2.92,5.15,3.86C82.86,47,84,49.51,84,52.37c0,3.59-2.66,6.4-8.1,6.4-5.6,0-8-3.06-8.47-6.47Z"/><path class="cls-1" d="M90.31,56.49v8.38H87.52V46.23c0-1.33,0-2.7,0-4h2.72a23.87,23.87,0,0,1,.1,2.55,5.61,5.61,0,0,1,5.31-2.94c3.75,0,6.47,3.15,6.47,8.08,0,5.8-3.13,8.92-7,8.92C92.41,58.88,91,57.78,90.31,56.49Zm8.9-6.42c0-3.44-1.57-5.79-4.34-5.79-3.36,0-4.69,2.13-4.69,6.07s1.09,6.16,4.48,6.16C97.62,56.51,99.21,54.07,99.21,50.07Z"/><path class="cls-1" d="M119.9,50.35c0,4.67-2.68,8.53-7.64,8.53-4.65,0-7.46-3.6-7.46-8.48s2.75-8.52,7.64-8.52C117,41.88,119.9,45.26,119.9,50.35Zm-12.22,0c0,3.56,1.78,6.16,4.7,6.16S117,54.07,117,50.39s-1.66-6.16-4.7-6.16S107.68,46.68,107.68,50.38Z"/><path class="cls-1" d="M123.55,46.68c0-2.27,0-3.55,0-4.41h2.75c0,.45.08,1.73.08,3.31a5.76,5.76,0,0,1,5.47-3.7v2.8c-3.33.1-5.47,1.83-5.47,5.94v7.87h-2.8Z"/><path class="cls-1" d="M133.6,42.27h2.8V37.48h2.81v4.79h3.58v2.28h-3.58v9.51c0,1.57.38,2.38,1.85,2.38a6.38,6.38,0,0,0,1.41-.13v2.11a7.45,7.45,0,0,1-2.42.3c-2.53,0-3.65-1.31-3.65-4V44.55h-2.8Z"/><path class="cls-1" d="M147.54,53.85c.46,1.78,1.77,2.82,4,2.82,2.39,0,3.32-1,3.32-2.5s-.74-2.23-3.84-3c-4.64-1.12-5.6-2.54-5.6-4.74s1.68-4.57,5.85-4.57,5.9,2.43,6.11,4.69h-2.71c-.23-1-1-2.51-3.52-2.51-2.27,0-3,1.09-3,2.15,0,1.22.67,1.82,3.65,2.53,4.92,1.17,5.9,2.81,5.9,5.22,0,2.84-2.26,4.92-6.3,4.92-4.2,0-6.26-2.13-6.67-5Z"/><path class="cls-1" d="M80.39,96.89H78.13a12.88,12.88,0,0,1-.28-3c-1,1.58-2.89,3.31-6.92,3.31-6.42,0-9.83-4.87-9.83-11.2,0-6.67,3.66-11.68,10.38-11.68,5.17,0,8.42,2.8,9.06,6.78h-3c-.76-2.49-2.55-4.32-6.18-4.32-5.17,0-7.22,4.13-7.22,9.08,0,4.58,2.07,8.86,7.1,8.86s6.23-3.32,6.23-7.08V87.4H71.25V84.87h9.14Z"/><path class="cls-1" d="M85.17,85.08c0-2.27,0-3.55,0-4.41h2.74c.05.45.09,1.73.09,3.31a5.75,5.75,0,0,1,5.47-3.7v2.8C90.11,83.18,88,84.91,88,89v7.87h-2.8Z"/><path class="cls-1" d="M110.12,88.75c0,4.67-2.68,8.53-7.64,8.53-4.65,0-7.46-3.6-7.46-8.48s2.76-8.52,7.65-8.52C107.17,80.28,110.12,83.66,110.12,88.75Zm-12.21,0c0,3.56,1.77,6.15,4.69,6.15s4.64-2.46,4.64-6.14-1.66-6.16-4.7-6.16S97.91,85.08,97.91,88.78Z"/><path class="cls-1" d="M126.8,92.16c0,1.58,0,3.77,0,4.73h-2.72a21.9,21.9,0,0,1-.11-2.43c-.8,1.8-2.36,2.82-4.92,2.82-2.73,0-5.36-1.36-5.36-5.94V80.67h2.78V90.74c0,2.13.67,4.1,3.36,4.1,3,0,4.14-1.66,4.14-5.71V80.67h2.8Z"/><path class="cls-1" d="M131.61,84.76c0-1.41,0-2.84,0-4.09h2.73c.07.48.11,2.18.11,2.66a5.09,5.09,0,0,1,5.1-3c3,0,5.42,1.86,5.42,6.18V96.89h-2.8V86.82c0-2.45-1-4.11-3.43-4.11-3.06,0-4.29,2.33-4.29,5.59v8.59h-2.81Z"/><path class="cls-1" d="M163.21,73.4V92.31c0,1.52,0,3,0,4.58h-2.69a21.51,21.51,0,0,1-.14-2.3c-.8,1.69-2.45,2.69-5.11,2.69-4.17,0-6.73-3.38-6.73-8.33s2.76-8.67,7.25-8.67c2.87,0,4.15,1.16,4.59,2.08v-9ZM151.48,88.86c0,3.92,1.86,6,4.41,6,3.79,0,4.63-2.8,4.63-6.36s-.76-5.88-4.41-5.88C153.25,82.66,151.48,84.93,151.48,88.86Z"/><polygon class="cls-1" points="59 126.25 113 182.75 166 126.25 59 126.25"/></svg>