<svg id="Layer_1" data-name="Layer 1" xmlns="http://www.w3.org/2000/svg" viewBox="0 0 225 225"><defs><style>.cls-1{fill:#ea6a13;}</style></defs><title>SportsBlock</title><path class="cls-1" d="M70.41,52.3c.61,2.67,2.43,4.11,5.66,4.11,3.47,0,4.85-1.63,4.85-3.73s-1.1-3.49-5.56-4.57c-5.25-1.27-7.07-3.07-7.07-6.2,0-3.3,2.44-6,7.41-6,5.3,0,7.48,3.06,7.78,6h-3c-.39-2-1.63-3.61-4.88-3.61-2.71,0-4.23,1.22-4.23,3.34s1.25,2.92,5.15,3.86C82.86,47,84,49.51,84,52.37c0,3.59-2.66,6.4-8.1,6.4-5.6,0-8-3.06-8.47-6.47Z"/><path class="cls-1" d="M90.31,56.49v8.38H87.52V46.23c0-1.33,0-2.7,0-4h2.72a23.87,23.87,0,0,1,.1,2.55,5.61,5.61,0,0,1,5.31-2.94c3.75,0,6.47,3.15,6.47,8.08,0,5.8-3.13,8.92-7,8.92C92.41,58.88,91,57.78,90.31,56.49Zm8.9-6.42c0-3.44-1.57-5.79-4.34-5.79-3.36,0-4.69,2.13-4.69,6.07s1.09,6.16,4.48,6.16C97.62,56.51,99.21,54.07,99.21,50.07Z"/><path class="cls-1" d="M119.9,50.35c0,4.67-2.68,8.53-7.64,8.53-4.65,0-7.46-3.6-7.46-8.48s2.75-8.52,7.64-8.52C117,41.88,119.9,45.26,119.9,50.35Zm-12.22,0c0,3.56,1.78,6.16,4.7,6.16S117,54.07,117,50.39s-1.66-6.16-4.7-6.16S107.68,46.68,107.68,50.38Z"/><path class="cls-1" d="M123.55,46.68c0-2.27,0-3.55,0-4.41h2.75c0,.45.08,1.73.08,3.31a5.76,5.76,0,0,1,5.47-3.7v2.8c-3.33.1-5.47,1.83-5.47,5.94v7.87h-2.8Z"/><path class="cls-1" d="M133.6,42.27h2.8V37.48h2.81v4.79h3.58v2.28h-3.58v9.51c0,1.57.38,2.38,1.85,2.38a6.38,6.38,0,0,0,1.41-.13v2.11a7.45,7.45,0,0,1-2.42.3c-2.53,0-3.65-1.31-3.65-4V44.55h-2.8Z"/><path class="cls-1" d="M147.54,53.85c.46,1.78,1.77,2.82,4,2.82,2.39,0,3.32-1,3.32-2.5s-.74-2.23-3.84-3c-4.64-1.12-5.6-2.54-5.6-4.74s1.68-4.57,5.85-4.57,5.9,2.43,6.11,4.69h-2.71c-.23-1-1-2.51-3.52-2.51-2.27,0-3,1.09-3,2.15,0,1.22.67,1.82,3.65,2.53,4.92,1.17,5.9,2.81,5.9,5.22,0,2.84-2.26,4.92-6.3,4.92-4.2,0-6.26-2.13-6.67-5Z"/><path class="cls-1" d="M71.13,90.58c-1,3.78-3.81,6.59-8.86,6.59-6.66,0-10-5-10-11.34,0-6,3.37-11.52,10.13-11.52,5.25,0,8.1,3,8.76,6.72h-3a5.63,5.63,0,0,0-5.93-4.26c-4.91,0-6.91,4.47-6.91,9s1.9,9,7,9c3.43,0,4.94-2,5.78-4.13Z"/><path class="cls-1" d="M88.92,88.75c0,4.67-2.68,8.53-7.64,8.53-4.65,0-7.46-3.6-7.46-8.48s2.76-8.52,7.65-8.52C86,80.28,88.92,83.66,88.92,88.75Zm-12.21,0c0,3.56,1.77,6.15,4.69,6.15S86,92.47,86,88.79s-1.66-6.16-4.7-6.16S76.71,85.08,76.71,88.78Z"/><path class="cls-1" d="M92.58,84.85c0-1.4,0-2.87,0-4.18h2.71c0,.48.12,1.68.11,2.49a5,5,0,0,1,4.72-2.88,4.46,4.46,0,0,1,4.49,2.91,5.53,5.53,0,0,1,5.17-2.91c2.63,0,5.11,1.56,5.11,6V96.89H112.1V86.57c0-1.88-.68-3.87-3.21-3.87s-3.79,2-3.79,4.88v9.31h-2.75V86.66c0-2.09-.59-4-3.14-4s-3.85,2.11-3.85,5.2v9H92.58Z"/><path class="cls-1" d="M122.44,94.89v8.38h-2.79V84.63c0-1.33,0-2.7,0-4h2.72a23.87,23.87,0,0,1,.1,2.55,5.59,5.59,0,0,1,5.3-2.94c3.76,0,6.48,3.15,6.48,8.08,0,5.8-3.13,8.92-7.06,8.92C124.54,97.28,123.17,96.18,122.44,94.89Zm8.89-6.42c0-3.44-1.56-5.79-4.33-5.79-3.36,0-4.69,2.13-4.69,6.07s1.09,6.16,4.48,6.16C129.75,94.91,131.33,92.47,131.33,88.47Z"/><path class="cls-1" d="M137.89,96.89V73.4h2.8V96.89Z"/><path class="cls-1" d="M147.15,89.29c0,3.3,1.68,5.64,4.44,5.64a3.74,3.74,0,0,0,3.91-2.5h2.83a6.6,6.6,0,0,1-6.83,4.85c-5.1,0-7.18-4.15-7.18-8.33,0-4.82,2.43-8.67,7.36-8.67,5.23,0,6.95,4.2,6.95,7.66,0,.5,0,.91,0,1.35Zm8.64-2c0-2.66-1.38-4.81-4.15-4.81s-4.11,2-4.39,4.81Z"/><path class="cls-1" d="M163.34,80.67c2.28,3.61,3.25,5.15,3.84,6.06h0c.69-1,2-3.16,4-6.06h3.14l-5.49,7.8,5.54,8.42h-3.24c-2-3.17-3.34-5.35-4-6.41h0c-.54.91-1.85,3.07-4,6.41H160l5.45-8.1-5.29-8.12Z"/><polygon class="cls-1" points="59 126.25 113 182.75 166 126.25 59 126.25"/></svg>