<svg id="Layer_1" data-name="Layer 1" xmlns="http://www.w3.org/2000/svg" viewBox="0 0 225 225"><defs><style>.cls-1{fill:#063bbf;}</style></defs><title>StudentCentre</title><path class="cls-1" d="M61.77,52.3c.61,2.67,2.43,4.11,5.66,4.11,3.47,0,4.85-1.63,4.85-3.73s-1.1-3.49-5.57-4.57c-5.24-1.27-7.06-3.07-7.06-6.2,0-3.3,2.44-6,7.41-6,5.3,0,7.48,3.06,7.78,6h-3c-.39-2-1.63-3.61-4.88-3.61-2.71,0-4.23,1.22-4.23,3.34s1.25,2.92,5.15,3.86c6.35,1.55,7.47,4,7.47,6.88,0,3.59-2.66,6.4-8.1,6.4-5.6,0-8-3.06-8.47-6.47Z"/><path class="cls-1" d="M77.05,42.27h2.81V37.48h2.8v4.79h3.58v2.28H82.66v9.51c0,1.57.39,2.38,1.85,2.38a6.52,6.52,0,0,0,1.42-.13v2.11a7.47,7.47,0,0,1-2.43.3c-2.52,0-3.64-1.31-3.64-4V44.55H77.05Z"/><path class="cls-1" d="M102,53.76c0,1.58,0,3.77,0,4.73H99.26a21.9,21.9,0,0,1-.11-2.43c-.8,1.8-2.36,2.82-4.91,2.82-2.74,0-5.36-1.36-5.36-5.94V42.27h2.78V52.34c0,2.13.66,4.1,3.36,4.1,3,0,4.13-1.66,4.13-5.71V42.27H102Z"/><path class="cls-1" d="M120.28,35V53.91c0,1.52,0,3,0,4.58h-2.69c-.07-.43-.13-1.67-.14-2.3-.8,1.69-2.44,2.69-5.1,2.69-4.17,0-6.74-3.38-6.74-8.33s2.77-8.67,7.25-8.67c2.88,0,4.15,1.16,4.59,2.08V35ZM108.55,50.46c0,3.92,1.86,6,4.41,6,3.79,0,4.63-2.8,4.63-6.36s-.76-5.88-4.41-5.88C110.32,44.26,108.55,46.53,108.55,50.46Z"/><path class="cls-1" d="M126.74,50.89c0,3.3,1.68,5.65,4.43,5.65A3.75,3.75,0,0,0,135.09,54h2.82a6.6,6.6,0,0,1-6.83,4.85c-5.1,0-7.18-4.15-7.18-8.33,0-4.82,2.43-8.67,7.36-8.67,5.24,0,7,4.2,7,7.66,0,.5,0,.91,0,1.35Zm8.63-2c0-2.67-1.37-4.82-4.15-4.82s-4.1,2-4.39,4.82Z"/><path class="cls-1" d="M141.84,46.36c0-1.41,0-2.83,0-4.09h2.73c.07.48.12,2.18.11,2.66a5.11,5.11,0,0,1,5.11-3c3,0,5.42,1.86,5.42,6.18V58.49h-2.8V48.42c0-2.46-1-4.11-3.44-4.11-3.06,0-4.29,2.33-4.29,5.59v8.59h-2.8Z"/><path class="cls-1" d="M157.66,42.27h2.81V37.48h2.8v4.79h3.58v2.28h-3.58v9.51c0,1.57.38,2.38,1.85,2.38a6.38,6.38,0,0,0,1.41-.13v2.11a7.45,7.45,0,0,1-2.42.3c-2.53,0-3.64-1.31-3.64-4V44.55h-2.81Z"/><path class="cls-1" d="M85.93,90.58c-1,3.78-3.81,6.59-8.86,6.59-6.66,0-10-5-10-11.34,0-6,3.37-11.52,10.13-11.52,5.25,0,8.1,3,8.76,6.72H83a5.63,5.63,0,0,0-5.93-4.26c-4.91,0-6.91,4.47-6.91,9s1.9,9,7,9c3.43,0,4.94-2,5.77-4.13Z"/><path class="cls-1" d="M91.46,89.29c0,3.3,1.68,5.64,4.43,5.64a3.74,3.74,0,0,0,3.92-2.5h2.82a6.6,6.6,0,0,1-6.83,4.85c-5.1,0-7.18-4.15-7.18-8.33,0-4.82,2.43-8.67,7.36-8.67,5.24,0,7,4.2,7,7.66,0,.5,0,.91,0,1.35Zm8.63-2c0-2.66-1.37-4.81-4.15-4.81s-4.1,2-4.39,4.81Z"/><path class="cls-1" d="M106.56,84.76c0-1.41,0-2.84,0-4.09h2.73c.07.48.12,2.18.11,2.66a5.1,5.1,0,0,1,5.1-3c3.05,0,5.43,1.86,5.43,6.18V96.89h-2.81V86.82c0-2.45-1-4.11-3.43-4.11-3.06,0-4.29,2.33-4.29,5.59v8.59h-2.8Z"/><path class="cls-1" d="M122.38,80.67h2.81V75.88H128v4.79h3.58V83H128v9.51c0,1.57.38,2.38,1.85,2.38a6.52,6.52,0,0,0,1.42-.13v2.11a7.51,7.51,0,0,1-2.43.3c-2.52,0-3.64-1.31-3.64-4V83h-2.81Z"/><path class="cls-1" d="M134.42,85.08c0-2.27,0-3.55,0-4.41h2.75c0,.45.09,1.73.09,3.31a5.74,5.74,0,0,1,5.46-3.7v2.8c-3.32.1-5.46,1.83-5.46,5.94v7.87h-2.8Z"/><path class="cls-1" d="M147.1,89.29c0,3.3,1.68,5.64,4.44,5.64a3.73,3.73,0,0,0,3.91-2.5h2.83a6.6,6.6,0,0,1-6.83,4.85c-5.1,0-7.18-4.15-7.18-8.33,0-4.82,2.43-8.67,7.36-8.67,5.24,0,7,4.2,7,7.66,0,.5,0,.91,0,1.35Zm8.64-2c0-2.66-1.38-4.81-4.15-4.81s-4.11,2-4.39,4.81Z"/><polygon class="cls-1" points="59 126.25 113 182.75 166 126.25 59 126.25"/></svg>